<?xml version="1.0" encoding="UTF-8"?>
<svg xmlns="http://www.w3.org/2000/svg" xmlns:xlink="http://www.w3.org/1999/xlink" width="16px" height="16px" viewBox="0 0 16 16" version="1.1">
<g id="surface1">
<path style="fill:none;stroke-width:2;stroke-linecap:round;stroke-linejoin:round;stroke:rgb(0%,0%,0%);stroke-opacity:1;stroke-miterlimit:4;" d="M 12 18.498047 C 12.005859 19.576172 11.314453 20.53125 10.294922 20.871094 C 9.275391 21.210938 8.15625 20.859375 7.511719 19.998047 L 7.5 19.998047 C 6.720703 20.009766 5.982422 19.646484 5.507812 19.025391 C 5.033203 18.404297 4.880859 17.595703 5.097656 16.845703 C 4.019531 16.511719 3.216797 15.591797 3.035156 14.472656 C 2.859375 13.353516 3.328125 12.228516 4.248047 11.572266 C 3.691406 10.429688 4.089844 9.058594 5.167969 8.390625 C 4.898438 7.699219 4.951172 6.919922 5.314453 6.275391 C 5.677734 5.625 6.316406 5.173828 7.048828 5.044922 C 7.183594 4.306641 7.646484 3.667969 8.308594 3.304688 C 8.970703 2.947266 9.761719 2.900391 10.453125 3.1875 C 11.390625 3.574219 12 4.488281 12 5.501953 M 12 18.498047 L 12 5.501953 M 12 18.498047 C 11.994141 19.576172 12.685547 20.53125 13.705078 20.871094 C 14.724609 21.210938 15.84375 20.859375 16.488281 19.998047 L 16.5 19.998047 C 17.279297 20.009766 18.023438 19.652344 18.498047 19.025391 C 18.966797 18.404297 19.119141 17.595703 18.902344 16.845703 C 19.986328 16.511719 20.783203 15.591797 20.964844 14.472656 C 21.140625 13.353516 20.671875 12.228516 19.751953 11.572266 C 20.308594 10.429688 19.910156 9.058594 18.826172 8.390625 C 19.101562 7.699219 19.048828 6.919922 18.685547 6.275391 C 18.322266 5.625 17.683594 5.173828 16.951172 5.044922 C 16.734375 3.861328 15.703125 3 14.501953 3 C 13.119141 3 12 4.119141 12 5.501953 M 4.001953 10.5 C 4.001953 9.662109 4.423828 8.876953 5.121094 8.414062 C 5.824219 7.951172 6.708984 7.869141 7.482422 8.197266 M 7.201172 16.751953 C 5.794922 17.367188 4.148438 16.822266 3.392578 15.486328 C 2.630859 14.15625 3 12.462891 4.248047 11.566406 M 19.998047 10.5 C 19.998047 9.662109 19.576172 8.876953 18.878906 8.414062 C 18.175781 7.951172 17.291016 7.869141 16.517578 8.197266 M 16.798828 16.751953 C 18.205078 17.367188 19.851562 16.822266 20.613281 15.486328 C 21.369141 14.15625 21 12.462891 19.751953 11.566406 " transform="matrix(0.666667,0,0,0.666667,0,0)"/>
</g>
</svg>
